<svg width="16" height="16" viewBox="0 0 16 16" fill="none" xmlns="http://www.w3.org/2000/svg">
<path d="M8 0C3.58065 0 0 3.58065 0 8C0 12.4194 3.58065 16 8 16C12.4194 16 16 12.4194 16 8C16 3.58065 12.4194 0 8 0ZM2.83871 8H1.80645C1.80645 4.58387 4.58387 1.80645 8 1.80645V2.83871C5.15484 2.83871 2.83871 5.15484 2.83871 8ZM8 11.0968C6.29032 11.0968 4.90323 9.70968 4.90323 8C4.90323 6.29032 6.29032 4.90323 8 4.90323C9.70968 4.90323 11.0968 6.29032 11.0968 8C11.0968 9.70968 9.70968 11.0968 8 11.0968ZM8 6.96774C7.42903 6.96774 6.96774 7.42903 6.96774 8C6.96774 8.57097 7.42903 9.03226 8 9.03226C8.57097 9.03226 9.03226 8.57097 9.03226 8C9.03226 7.42903 8.57097 6.96774 8 6.96774Z" fill="#F5F5F5"/>
</svg>
