<svg width="15" height="15" viewBox="0 0 15 15" fill="none" xmlns="http://www.w3.org/2000/svg">
<path d="M8.31295 7.30845L6.64044 8.98097C6.46885 9.15253 6.1907 9.15256 6.01909 8.98097C5.8475 8.80941 5.8475 8.5312 6.01909 8.35961L7.69159 6.68708C7.28503 6.19513 6.99619 5.63801 6.82536 5.05334L0.477793 11.7806C-0.174347 12.4767 -0.156831 13.5503 0.5176 14.2247L0.775393 14.4825C1.44985 15.157 2.5235 15.1744 3.2206 14.5213L9.94667 8.17469C9.36201 8.00386 8.80489 7.71502 8.31295 7.30845Z" fill="#F5F5F5"/>
<path d="M8.31078 1.42261L13.5776 6.68924C12.9382 7.19598 12.1298 7.49857 11.2507 7.49857C9.18015 7.49857 7.50146 5.81987 7.50146 3.74924C7.50146 2.87023 7.80404 2.06204 8.31078 1.42261Z" fill="#F5F5F5"/>
<path d="M15 3.74933C15 4.62427 14.7001 5.4292 14.198 6.06717L8.93292 0.802004C9.57089 0.299946 10.3758 0 11.2507 0C13.3213 0 15 1.6787 15 3.74933Z" fill="#F5F5F5"/>
</svg>
