<?xml version="1.0" encoding="UTF-8"?>
<!DOCTYPE svg PUBLIC "-//W3C//DTD SVG 1.1//EN" "http://www.w3.org/Graphics/SVG/1.1/DTD/svg11.dtd">
<!-- Creator: CorelDRAW 2020 (64-Bit) -->
<svg xmlns="http://www.w3.org/2000/svg" xml:space="preserve" width="5.8209mm" height="5.8209mm" version="1.1" style="shape-rendering:geometricPrecision; text-rendering:geometricPrecision; image-rendering:optimizeQuality; fill-rule:evenodd; clip-rule:evenodd"
viewBox="0 0 582.1 582.1"
 xmlns:xlink="http://www.w3.org/1999/xlink"
 xmlns:xodm="http://www.corel.com/coreldraw/odm/2003">
 <defs>
  <style type="text/css">
   <![CDATA[
    .fil0 {fill:whitesmoke;fill-rule:nonzero}
   ]]>
  </style>
 </defs>
 <g id="Capa_x0020_1">
  <metadata id="CorelCorpID_0Corel-Layer"/>
  <path class="fil0" d="M79.38 0.01l423.34 0c21.92,0 41.77,8.89 56.13,23.25 14.34,14.46 23.25,34.29 23.25,56.1 -0.17,0.03 -0.19,423.35 -0.01,423.39 0,21.81 -8.91,41.64 -23.31,56.04 -14.23,14.35 -34.07,23.2 -56.04,23.21l-423.37 0.1c-21.84,0 -41.65,-8.9 -56.01,-23.25l-0.11 0c-14.36,-14.36 -23.25,-34.22 -23.25,-56.13l0 -423.34c0,-21.91 8.89,-41.77 23.25,-56.13 14.36,-14.36 34.22,-23.25 56.13,-23.24zm380.84 130.69l-234.86 234.87 -91.46 -91.46c-15.49,-15.49 -40.63,-15.49 -56.12,0 -15.49,15.49 -15.49,40.63 0,56.12l119.52 119.52c15.49,15.49 40.63,15.49 56.12,0l262.92 -262.93c15.49,-15.49 15.49,-40.63 0,-56.12 -15.49,-15.49 -40.63,-15.49 -56.12,0z"/>
 </g>
</svg>
