<?xml version="1.0" encoding="UTF-8"?>
<!DOCTYPE svg PUBLIC "-//W3C//DTD SVG 1.1//EN" "http://www.w3.org/Graphics/SVG/1.1/DTD/svg11.dtd">
<!-- Creator: CorelDRAW 2020 (64-Bit) -->
<svg xmlns="http://www.w3.org/2000/svg" xml:space="preserve" width="7.3202mm" height="7.3202mm" version="1.1" style="shape-rendering:geometricPrecision; text-rendering:geometricPrecision; image-rendering:optimizeQuality; fill-rule:evenodd; clip-rule:evenodd"
viewBox="0 0 732.02 732.02"
 xmlns:xlink="http://www.w3.org/1999/xlink"
 xmlns:xodm="http://www.corel.com/coreldraw/odm/2003">
 <defs>
  <style type="text/css">
   <![CDATA[
    .fil0 {fill:whitesmoke;fill-rule:nonzero}
   ]]>
  </style>
 </defs>
 <g id="Capa_x0020_1">
  <metadata id="CorelCorpID_0Corel-Layer"/>
  <path class="fil0" d="M366.01 432.15c18.26,0 34.81,-7.41 46.77,-19.37 11.96,-11.96 19.37,-28.51 19.37,-46.77 0,-18.26 -7.41,-34.81 -19.37,-46.77 -11.96,-11.96 -28.51,-19.37 -46.77,-19.37 -18.26,0 -34.81,7.41 -46.77,19.37 -11.96,11.96 -19.37,28.51 -19.37,46.77 0,18.26 7.41,34.81 19.37,46.77 11.96,11.96 28.51,19.37 46.77,19.37zm252.44 37.53c-0.89,2.13 -1.49,4.36 -1.75,6.59l-0.06 0.47c-0.24,2.43 -0.17,4.76 0.21,6.88 0.41,2.28 1.23,4.61 2.39,6.85 1.06,2.04 2.43,3.97 4.04,5.67l1.9 1.8c4.1,4.1 7.8,8.59 11,13.39l1.28 2.13c2.67,4.23 4.96,8.63 6.8,13.09 2.28,5.48 3.98,11.04 5.07,16.55 1.13,5.68 1.71,11.47 1.71,17.23 0,5.75 -0.58,11.54 -1.71,17.22 -1.1,5.52 -2.79,11.07 -5.07,16.55 -2.15,5.19 -4.89,10.3 -8.16,15.17 -3.12,4.85 -6.82,9.34 -10.92,13.44 -3.86,3.86 -8.37,7.53 -13.39,10.9l0 0.11c-4.5,2.99 -9.61,5.7 -15.24,8.03 -5.47,2.32 -11.02,4.01 -16.53,5.11 -5.68,1.13 -11.47,1.71 -17.23,1.71 -5.75,0 -11.54,-0.58 -17.22,-1.71 -5.51,-1.09 -11.07,-2.79 -16.55,-5.07 -5.19,-2.14 -10.3,-4.89 -15.17,-8.16 -4.85,-3.12 -9.34,-6.82 -13.44,-10.92l-1.55 -1.65c-1.76,-1.72 -3.79,-3.18 -5.93,-4.29 -2.23,-1.15 -4.55,-1.97 -6.85,-2.38 -2.27,-0.4 -4.76,-0.46 -7.33,-0.17 -2.39,0.29 -4.77,0.95 -7.01,1.93l-1.06 0.44c-1.85,0.87 -3.61,2.01 -5.21,3.34 -1.84,1.54 -3.47,3.34 -4.77,5.3 -1.25,1.9 -2.27,4.08 -2.97,6.42l-0.5 1.5c-0.42,1.76 -0.64,3.6 -0.65,5.43l0.1 5.24c0,11.54 -2.35,22.97 -6.77,33.66 -4.42,10.75 -10.87,20.51 -19.07,28.71 -8.16,8.16 -17.95,14.61 -28.71,19.06 -10.69,4.42 -22.13,6.77 -33.65,6.77 -11.52,0 -22.96,-2.35 -33.65,-6.77 -10.77,-4.45 -20.56,-10.9 -28.72,-19.06 -8.16,-8.16 -14.61,-17.95 -19.06,-28.72 -4.42,-10.69 -6.77,-22.11 -6.77,-33.65l0.02 -3.77c-0.16,-1.9 -0.55,-3.78 -1.14,-5.58 -0.75,-2.15 -1.9,-4.34 -3.41,-6.46l-0.71 -1.04c-1.25,-1.58 -2.73,-3.02 -4.36,-4.26 -1.86,-1.42 -4.03,-2.6 -6.37,-3.46l-1.55 -0.62c-2.25,-0.99 -4.63,-1.65 -7.01,-1.93l-0.47 -0.06c-2.43,-0.24 -4.76,-0.17 -6.88,0.21 -2.28,0.41 -4.61,1.23 -6.85,2.39 -2.14,1.11 -4.13,2.53 -5.82,4.19l-1.7 1.7c-4.05,4.15 -8.54,7.85 -13.34,11.05l-2.13 1.28c-4.23,2.67 -8.63,4.96 -13.09,6.8 -5.48,2.28 -11.04,3.98 -16.55,5.07 -5.68,1.13 -11.47,1.71 -17.22,1.71 -5.76,0 -11.55,-0.58 -17.23,-1.71 -5.52,-1.1 -11.07,-2.79 -16.55,-5.07 -5.19,-2.15 -10.3,-4.89 -15.17,-8.16 -4.85,-3.12 -9.34,-6.82 -13.44,-10.92 -3.86,-3.86 -7.53,-8.37 -10.9,-13.39l-0.11 0c-2.99,-4.5 -5.7,-9.61 -8.03,-15.24 -2.32,-5.47 -4.01,-11.02 -5.11,-16.53 -1.13,-5.68 -1.71,-11.47 -1.71,-17.23 0,-5.75 0.58,-11.54 1.71,-17.22 1.09,-5.51 2.79,-11.07 5.07,-16.55 2.14,-5.19 4.89,-10.3 8.16,-15.17 3.12,-4.85 6.82,-9.34 10.92,-13.44l1.75 -1.65c1.66,-1.69 3.08,-3.68 4.19,-5.82 1.16,-2.24 1.98,-4.57 2.39,-6.86 0.41,-2.27 0.45,-4.76 0.15,-7.34l-0.06 -0.56c-0.3,-2.15 -0.93,-4.33 -1.86,-6.44l-0.46 -1.11c-0.9,-1.93 -2.01,-3.68 -3.27,-5.21 -1.59,-1.8 -3.39,-3.42 -5.35,-4.72 -2.07,-1.36 -4.23,-2.41 -6.39,-3.06 -2.45,-0.64 -4.81,-1.05 -6.95,-1.06l-5.25 0.1c-11.54,0 -22.97,-2.35 -33.66,-6.77 -10.75,-4.42 -20.51,-10.87 -28.71,-19.07 -8.16,-8.16 -14.61,-17.95 -19.06,-28.71 -4.42,-10.69 -6.77,-22.13 -6.77,-33.65 0,-11.52 2.35,-22.96 6.77,-33.65 4.45,-10.77 10.9,-20.56 19.06,-28.72 8.16,-8.16 17.95,-14.61 28.72,-19.06 10.69,-4.42 22.11,-6.77 33.65,-6.77l3.77 0.02c1.9,-0.16 3.78,-0.55 5.58,-1.14 2.15,-0.75 4.34,-1.9 6.46,-3.41l1.04 -0.71c1.58,-1.25 3.02,-2.73 4.26,-4.36 1.43,-1.87 2.61,-4.03 3.47,-6.37l0.62 -1.55c1,-2.26 1.65,-4.61 1.92,-6.91 0.31,-2.63 0.26,-5.16 -0.15,-7.45 -0.41,-2.28 -1.23,-4.61 -2.39,-6.85 -1.11,-2.14 -2.53,-4.13 -4.19,-5.82l-1.7 -1.7c-4.15,-4.05 -7.85,-8.54 -11.05,-13.34l-1.28 -2.13c-2.67,-4.23 -4.96,-8.63 -6.8,-13.09 -2.28,-5.48 -3.98,-11.04 -5.07,-16.55 -1.13,-5.68 -1.71,-11.47 -1.71,-17.22 0,-5.76 0.58,-11.55 1.71,-17.23 1.1,-5.52 2.79,-11.07 5.07,-16.55 2.15,-5.19 4.89,-10.3 8.16,-15.17 3.12,-4.85 6.82,-9.34 10.92,-13.44 3.86,-3.86 8.37,-7.53 13.39,-10.9l0 -0.11c4.5,-2.99 9.61,-5.7 15.24,-8.03 5.47,-2.32 11.02,-4.01 16.53,-5.11 5.68,-1.13 11.47,-1.71 17.23,-1.71 5.75,0 11.54,0.58 17.22,1.71 5.51,1.09 11.07,2.79 16.55,5.07 5.19,2.14 10.3,4.89 15.17,8.16 4.85,3.12 9.34,6.82 13.44,10.92l1.65 1.75c1.69,1.66 3.68,3.08 5.82,4.19 2.24,1.16 4.57,1.98 6.86,2.39 2.26,0.4 4.76,0.46 7.35,0.16 2.38,-0.29 4.76,-0.95 7,-1.93 1.99,-0.88 4.04,-1.49 6.09,-1.85l2.65 -1.93c1.84,-1.54 3.46,-3.34 4.76,-5.3 1.37,-2.08 2.42,-4.25 3.07,-6.4 0.65,-2.49 1.05,-4.84 1.05,-6.94l-0.1 -5.25c0,-11.54 2.35,-22.97 6.77,-33.66 4.42,-10.75 10.87,-20.51 19.07,-28.71 8.16,-8.16 17.95,-14.61 28.71,-19.06 10.69,-4.42 22.13,-6.77 33.65,-6.77 11.54,0 22.98,2.35 33.65,6.77 10.76,4.45 20.55,10.9 28.71,19.06 8.2,8.2 14.65,17.96 19.07,28.61l0.59 1.56c4.04,10.27 6.18,21.19 6.18,32.2l-0.04 4.3c0.12,1.84 0.46,3.67 0.99,5.4l0.03 0.12c0.74,2.22 1.76,4.36 3.04,6.31 1.37,2.07 2.96,3.86 4.66,5.28 1.69,1.41 3.78,2.67 6.16,3.69l0.65 0.29c2.12,0.89 4.32,1.48 6.47,1.73 2.63,0.31 5.16,0.26 7.45,-0.15 2.28,-0.41 4.61,-1.23 6.85,-2.39 2.04,-1.06 3.97,-2.43 5.67,-4.04l1.8 -1.9c4.1,-4.1 8.59,-7.8 13.39,-11l2.13 -1.28c4.23,-2.67 8.63,-4.96 13.09,-6.8 5.48,-2.28 11.04,-3.98 16.55,-5.07 5.68,-1.13 11.47,-1.71 17.23,-1.71 5.75,0 11.54,0.58 17.22,1.71 5.52,1.1 11.07,2.79 16.55,5.07 5.19,2.15 10.3,4.89 15.17,8.16 4.85,3.12 9.34,6.82 13.44,10.92 3.86,3.86 7.53,8.37 10.9,13.39l0.11 0c2.99,4.5 5.7,9.61 8.03,15.24 2.32,5.47 4.01,11.02 5.11,16.53 1.13,5.68 1.71,11.47 1.71,17.23 0,5.75 -0.58,11.54 -1.71,17.22 -1.09,5.51 -2.79,11.07 -5.07,16.55 -2.14,5.19 -4.89,10.3 -8.16,15.17 -3.12,4.85 -6.82,9.34 -10.92,13.44l-1.65 1.55c-1.72,1.76 -3.18,3.79 -4.29,5.93 -1.15,2.23 -1.97,4.55 -2.38,6.85 -0.4,2.27 -0.46,4.76 -0.17,7.33 0.29,2.4 0.95,4.78 1.93,7.02 0.87,1.97 1.47,3.99 1.84,6.03l2.73 3.7c1.28,1.36 2.8,2.64 4.51,3.77 2.08,1.37 4.25,2.42 6.4,3.07 2.49,0.65 4.84,1.05 6.95,1.05l5.24 -0.1c11.54,0 22.97,2.35 33.66,6.77 10.75,4.42 20.51,10.87 28.71,19.07 8.16,8.16 14.61,17.95 19.06,28.71 4.42,10.69 6.77,22.13 6.77,33.65 0,11.54 -2.35,22.98 -6.77,33.65 -4.45,10.76 -10.9,20.55 -19.06,28.71 -8.2,8.2 -17.96,14.65 -28.61,19.07l-1.56 0.59c-10.27,4.04 -21.19,6.18 -32.2,6.18l-4.19 -0.04c-1.75,0.14 -3.61,0.52 -5.51,1.09l-1.44 0.39c-1.69,0.64 -3.36,1.51 -4.98,2.58 -2.08,1.37 -3.87,2.96 -5.29,4.66 -1.4,1.69 -2.65,3.77 -3.68,6.16l-0.28 0.63zm-54.25 0.39c0.88,-7.36 2.82,-14.63 5.78,-21.5l0.17 -0.4c2.88,-6.71 6.86,-13.12 11.74,-18.98 4.85,-5.83 10.49,-10.91 16.67,-15 5.43,-3.59 11.37,-6.49 17.65,-8.63l2.61 -0.94c6.08,-1.84 12.59,-2.92 19.33,-3.17l5.67 -0.16c4.45,0 8.73,-0.78 12.61,-2.24l0.89 -0.39c4.17,-1.73 8.08,-4.34 11.45,-7.71 3.41,-3.41 6.02,-7.29 7.7,-11.35 1.71,-4.13 2.63,-8.76 2.63,-13.59 0,-4.82 -0.92,-9.45 -2.63,-13.59 -1.68,-4.06 -4.29,-7.94 -7.7,-11.35 -3.37,-3.37 -7.28,-5.98 -11.45,-7.71 -4.1,-1.72 -8.7,-2.63 -13.5,-2.63l-5.24 0c-7.79,-0.11 -15.28,-1.23 -22.22,-3.32 -7.24,-2.29 -14.1,-5.5 -20.27,-9.58 -5.56,-3.7 -10.68,-8.17 -15.19,-13.28l-1.49 -1.63c-4.53,-5.42 -8.31,-11.42 -11.19,-17.82 -1.34,-2.72 -2.24,-5.71 -2.57,-8.87 -1.92,-5.44 -3.24,-11.07 -3.92,-16.76 -0.86,-7.46 -0.62,-15.14 0.78,-22.83 1.38,-7.71 3.89,-15.05 7.34,-21.73 3.5,-6.78 8.02,-13.06 13.39,-18.55l2.05 -2.17c1.63,-1.63 3.11,-3.43 4.38,-5.33l0.11 0c1.2,-1.8 2.3,-3.87 3.23,-6.12 0.83,-2 1.5,-4.24 1.97,-6.63 0.44,-2.21 0.67,-4.55 0.67,-6.88 0,-2.35 -0.23,-4.67 -0.67,-6.89 -0.47,-2.38 -1.14,-4.61 -1.97,-6.62 -0.75,-1.92 -1.88,-3.95 -3.33,-6.13 -1.04,-1.7 -2.55,-3.49 -4.39,-5.33 -1.63,-1.63 -3.43,-3.11 -5.33,-4.38l0 -0.11c-1.8,-1.2 -3.87,-2.3 -6.12,-3.23 -2,-0.83 -4.24,-1.5 -6.63,-1.97 -2.22,-0.44 -4.55,-0.67 -6.88,-0.67 -2.35,0 -4.68,0.23 -6.89,0.67 -2.39,0.47 -4.63,1.14 -6.63,1.97 -1.71,0.71 -3.32,1.51 -4.78,2.39l-1.34 0.95c-1.9,1.27 -3.7,2.75 -5.33,4.38l-2.16 2.05c-5.49,5.37 -11.77,9.89 -18.55,13.39 -6.68,3.45 -14.01,5.95 -21.73,7.35 -7.7,1.39 -15.39,1.63 -22.75,0.77 -7.44,-0.87 -14.73,-2.83 -21.56,-5.76l-0.44 -0.18c-6.72,-2.89 -13.13,-6.88 -18.98,-11.75 -5.83,-4.85 -10.91,-10.48 -15,-16.66 -4.18,-6.33 -7.41,-13.2 -9.57,-20.37 -1.81,-6.22 -2.9,-12.67 -3.17,-19.17l-0.16 -5.73c0,-4.45 -0.78,-8.73 -2.24,-12.61l-0.39 -0.89c-1.73,-4.17 -4.34,-8.08 -7.71,-11.45 -3.41,-3.41 -7.29,-6.02 -11.35,-7.7 -4.13,-1.71 -8.76,-2.63 -13.59,-2.63 -4.82,0 -9.45,0.92 -13.59,2.63 -4.06,1.68 -7.94,4.29 -11.35,7.7 -3.37,3.37 -5.98,7.28 -7.71,11.45 -1.72,4.1 -2.63,8.7 -2.63,13.5l0 5.25c-0.11,7.78 -1.23,15.27 -3.32,22.21 -2.29,7.24 -5.5,14.1 -9.58,20.27 -4.16,6.29 -9.21,11.93 -14.9,16.68 -5.12,4.28 -10.86,7.92 -17.04,10.79 -2.92,1.56 -6.17,2.59 -9.62,2.97 -5.44,1.93 -11.08,3.25 -16.78,3.92 -7.46,0.86 -15.15,0.62 -22.85,-0.77 -7.72,-1.4 -15.06,-3.9 -21.74,-7.35 -6.78,-3.5 -13.1,-8.05 -18.64,-13.49l-2.07 -1.95c-1.63,-1.63 -3.43,-3.11 -5.33,-4.38l0 -0.11c-1.8,-1.2 -3.87,-2.3 -6.12,-3.23 -2,-0.83 -4.24,-1.5 -6.63,-1.97 -2.21,-0.44 -4.55,-0.67 -6.88,-0.67 -2.35,0 -4.67,0.23 -6.89,0.67 -2.38,0.47 -4.61,1.14 -6.62,1.97 -1.92,0.75 -3.95,1.88 -6.13,3.33 -1.7,1.04 -3.49,2.55 -5.33,4.39 -1.63,1.63 -3.11,3.43 -4.38,5.33l-0.11 0c-1.2,1.8 -2.3,3.87 -3.23,6.12 -0.83,2 -1.5,4.24 -1.97,6.63 -0.44,2.22 -0.67,4.54 -0.67,6.89 0,2.33 0.23,4.67 0.67,6.88 0.47,2.39 1.14,4.63 1.97,6.63 0.71,1.71 1.51,3.32 2.39,4.78l0.95 1.34c1.27,1.9 2.75,3.7 4.38,5.33 0,0.24 1.65,1.77 1.95,2.07 5.44,5.54 9.99,11.86 13.49,18.64 3.45,6.68 5.95,14.01 7.35,21.73 1.39,7.7 1.63,15.39 0.77,22.75 -0.87,7.44 -2.83,14.74 -5.77,21.58 -2.64,6.9 -6.28,13.4 -10.78,19.29 -4.18,5.5 -9.16,10.47 -14.78,14.72l-1.68 1.31c-6.18,4.43 -13.12,7.93 -20.53,10.4 -6.49,2.13 -13.16,3.44 -19.92,3.84l-6.16 0.21c-4.82,0 -9.45,0.92 -13.59,2.63 -4.07,1.68 -7.96,4.3 -11.36,7.7 -3.4,3.4 -6.02,7.29 -7.7,11.36 -1.71,4.14 -2.63,8.77 -2.63,13.59 0,4.82 0.92,9.45 2.63,13.59 1.68,4.06 4.29,7.94 7.7,11.35 3.37,3.37 7.28,5.98 11.45,7.71 4.1,1.72 8.7,2.63 13.5,2.63l5.35 0.1c7.74,0.03 15.2,1.14 22.12,3.23 7.24,2.29 14.08,5.48 20.26,9.57 6.29,4.16 11.93,9.21 16.68,14.9 4.46,5.46 8.19,11.35 11.05,17.63l0.59 1.25c2.95,6.71 4.96,13.86 5.91,21.19l0.13 0.91c0.87,7.38 0.63,15.1 -0.77,22.84 -1.4,7.72 -3.9,15.06 -7.35,21.74 -3.5,6.78 -8.05,13.1 -13.49,18.64l-1.95 2.07c-1.63,1.63 -3.11,3.43 -4.38,5.33l-0.11 0c-1.2,1.8 -2.3,3.87 -3.23,6.12 -0.83,2 -1.5,4.24 -1.97,6.63 -0.44,2.21 -0.67,4.55 -0.67,6.88 0,2.35 0.23,4.67 0.67,6.89 0.47,2.38 1.14,4.61 1.97,6.62 0.75,1.92 1.88,3.95 3.33,6.13 1.04,1.7 2.55,3.49 4.39,5.33 1.63,1.63 3.43,3.11 5.33,4.38l0 0.11c1.8,1.2 3.87,2.3 6.12,3.23 2,0.83 4.24,1.5 6.63,1.97 2.22,0.44 4.54,0.67 6.89,0.67 2.33,0 4.67,-0.23 6.88,-0.67 2.39,-0.47 4.63,-1.14 6.63,-1.97 1.71,-0.71 3.32,-1.51 4.78,-2.39l1.34 -0.95c1.9,-1.27 3.7,-2.75 5.33,-4.38 0.24,0 1.77,-1.65 2.07,-1.95 5.54,-5.44 11.86,-9.99 18.64,-13.49 6.68,-3.45 14.01,-5.95 21.73,-7.35 7.42,-1.33 14.84,-1.61 21.95,-0.86l0.9 0.09c7.35,0.88 14.6,2.82 21.46,5.77 6.89,2.63 13.41,6.28 19.31,10.78 5.5,4.18 10.47,9.16 14.72,14.78l1.31 1.68c4.43,6.18 7.93,13.12 10.4,20.53 2.13,6.49 3.44,13.16 3.84,19.92l0.21 6.16c0,4.82 0.92,9.45 2.63,13.59 1.68,4.07 4.3,7.96 7.7,11.36 3.4,3.4 7.29,6.02 11.36,7.7 4.14,1.71 8.77,2.63 13.59,2.63 4.82,0 9.45,-0.92 13.59,-2.63 4.06,-1.68 7.94,-4.29 11.35,-7.7 3.37,-3.37 5.98,-7.28 7.71,-11.45 1.72,-4.1 2.63,-8.7 2.63,-13.5l0.1 -5.34c0.03,-6.58 0.9,-13.14 2.57,-19.47l0.66 -2.66c2.12,-7.04 5.36,-13.89 9.57,-20.26 4.18,-6.3 9.23,-11.93 14.91,-16.68 5.28,-4.42 11.23,-8.15 17.64,-11.06l1.23 -0.58c7.05,-3.11 14.53,-5.13 22.11,-6.04 7.46,-0.86 15.14,-0.62 22.83,0.78 7.71,1.38 15.05,3.89 21.73,7.34 6.78,3.5 13.06,8.02 18.55,13.39l2.17 2.05c1.63,1.63 3.43,3.11 5.33,4.38l0 0.11c1.8,1.2 3.87,2.3 6.12,3.23 2,0.83 4.24,1.5 6.63,1.97 2.21,0.44 4.55,0.67 6.88,0.67 2.35,0 4.67,-0.23 6.89,-0.67 2.38,-0.47 4.61,-1.14 6.62,-1.97 1.92,-0.75 3.95,-1.88 6.13,-3.33 1.7,-1.04 3.49,-2.55 5.33,-4.39 1.63,-1.63 3.11,-3.43 4.38,-5.33l0.11 0c1.2,-1.8 2.3,-3.87 3.23,-6.12 0.83,-2 1.5,-4.24 1.97,-6.63 0.44,-2.22 0.67,-4.55 0.67,-6.88 0,-2.35 -0.23,-4.68 -0.67,-6.89 -0.47,-2.39 -1.14,-4.63 -1.97,-6.63 -0.71,-1.71 -1.51,-3.32 -2.39,-4.78l-0.95 -1.34c-1.27,-1.9 -2.75,-3.7 -4.38,-5.33l-2.05 -2.16c-5.37,-5.49 -9.89,-11.77 -13.39,-18.55 -3.45,-6.68 -5.95,-14.01 -7.35,-21.73 -1.33,-7.42 -1.61,-14.84 -0.86,-21.95l0.09 -0.9zm-114 -19.87c-21.54,21.54 -51.33,34.87 -84.19,34.87 -32.86,0 -62.65,-13.33 -84.19,-34.87 -21.54,-21.54 -34.87,-51.33 -34.87,-84.19 0,-32.86 13.33,-62.65 34.87,-84.19 21.54,-21.54 51.33,-34.87 84.19,-34.87 32.86,0 62.65,13.33 84.19,34.87 21.54,21.54 34.87,51.33 34.87,84.19 0,32.86 -13.33,62.65 -34.87,84.19z"/>
 </g>
</svg>
