<svg width="4" height="18" viewBox="0 0 4 18" fill="none" xmlns="http://www.w3.org/2000/svg">
<path fill-rule="evenodd" clip-rule="evenodd" d="M0 2C0 0.895445 0.895409 0 1.99998 0C3.10456 0 3.99997 0.895445 3.99997 2C3.99997 3.10456 3.10456 4 1.99998 4C0.895409 4 0 3.10456 0 2ZM0 9C0 7.89544 0.895409 7 1.99998 7C3.10456 7 3.99997 7.89544 3.99997 9C3.99997 10.1046 3.10456 11 1.99998 11C0.895409 11 0 10.1046 0 9ZM1.99998 14C0.895409 14 0 14.8954 0 16C0 17.1046 0.895409 18 1.99998 18C3.10456 18 3.99997 17.1046 3.99997 16C3.99997 14.8954 3.10456 14 1.99998 14Z" fill="#F7F7F7"/>
</svg>
