<svg width="20" height="20" viewBox="0 0 20 20" fill="none" xmlns="http://www.w3.org/2000/svg">
<path fill-rule="evenodd" clip-rule="evenodd" d="M16.1238 2.7903C16.2678 2.64632 16.463 2.56543 16.6667 2.56543C16.8703 2.56543 17.0656 2.64632 17.2096 2.7903C17.3535 2.93429 17.4344 3.12957 17.4344 3.3332C17.4344 3.53682 17.3535 3.73211 17.2096 3.87609L9.48875 11.5969L8.04104 11.9588L8.40297 10.5111L16.1238 2.7903ZM16.6667 0.56543C15.9326 0.56543 15.2286 0.857033 14.7096 1.37609L6.79289 9.29276C6.66474 9.42091 6.57382 9.58149 6.52986 9.75733L5.69653 13.0907C5.61133 13.4314 5.71118 13.7919 5.95956 14.0403C6.20794 14.2887 6.56843 14.3885 6.9092 14.3033L10.2425 13.47C10.4184 13.426 10.5789 13.3351 10.7071 13.207L18.6238 5.2903C19.1428 4.77125 19.4344 4.06725 19.4344 3.3332C19.4344 2.59914 19.1428 1.89515 18.6238 1.37609C18.1047 0.857033 17.4007 0.56543 16.6667 0.56543ZM3.33333 2.3335C2.62609 2.3335 1.94781 2.61445 1.44771 3.11454C0.947617 3.61464 0.666666 4.29292 0.666666 5.00016V16.6668C0.666666 17.3741 0.947618 18.0523 1.44771 18.5524C1.94781 19.0525 2.62609 19.3335 3.33333 19.3335H15C15.7072 19.3335 16.3855 19.0525 16.8856 18.5524C17.3857 18.0523 17.6667 17.3741 17.6667 16.6668V10.8335C17.6667 10.2812 17.219 9.8335 16.6667 9.8335C16.1144 9.8335 15.6667 10.2812 15.6667 10.8335V16.6668C15.6667 16.8436 15.5964 17.0132 15.4714 17.1382C15.3464 17.2633 15.1768 17.3335 15 17.3335H3.33333C3.15652 17.3335 2.98695 17.2633 2.86193 17.1382C2.7369 17.0132 2.66667 16.8436 2.66667 16.6668V5.00016C2.66667 4.82335 2.7369 4.65378 2.86193 4.52876C2.98695 4.40373 3.15652 4.3335 3.33333 4.3335H9.16667C9.71895 4.3335 10.1667 3.88578 10.1667 3.3335C10.1667 2.78121 9.71895 2.3335 9.16667 2.3335H3.33333Z" fill="#F5F5F5"/>
</svg>
