<?xml version="1.0" encoding="UTF-8"?>
<!DOCTYPE svg PUBLIC "-//W3C//DTD SVG 1.1//EN" "http://www.w3.org/Graphics/SVG/1.1/DTD/svg11.dtd">
<!-- Creator: CorelDRAW 2020 (64-Bit) -->
<svg xmlns="http://www.w3.org/2000/svg" xml:space="preserve" width="10.0611mm" height="10mm" version="1.1" style="shape-rendering:geometricPrecision; text-rendering:geometricPrecision; image-rendering:optimizeQuality; fill-rule:evenodd; clip-rule:evenodd"
viewBox="0 0 209.1 207.83"
 xmlns:xlink="http://www.w3.org/1999/xlink"
 xmlns:xodm="http://www.corel.com/coreldraw/odm/2003">
 <defs>
  <style type="text/css">
   <![CDATA[
    .fil0 {fill:whitesmoke;fill-rule:nonzero}
   ]]>
  </style>
 </defs>
 <g id="Capa_x0020_1">
  <metadata id="CorelCorpID_0Corel-Layer"/>
  <path id="Facebook_x0020_new_x0020_Logo.cdr" class="fil0" d="M209.1 104.55c0,-57.74 -46.81,-104.55 -104.55,-104.55 -57.74,0 -104.55,46.81 -104.55,104.55 0,52.18 38.23,95.44 88.22,103.28l0 -73.06 -26.55 0 0 -30.22 26.55 0 0 -23.03c0,-26.2 15.61,-40.68 39.49,-40.68 11.44,0 23.4,2.04 23.4,2.04l0 25.73 -13.18 0c-12.99,0 -17.04,8.06 -17.04,16.33l0 19.61 29 0 -4.63 30.22 -24.36 0 0 73.06c49.98,-7.84 88.21,-51.1 88.21,-103.28z"/>
 </g>
</svg>
