<?xml version="1.0" encoding="UTF-8"?>
<!DOCTYPE svg PUBLIC "-//W3C//DTD SVG 1.1//EN" "http://www.w3.org/Graphics/SVG/1.1/DTD/svg11.dtd">
<!-- Creator: CorelDRAW 2020 (64-Bit) -->
<svg xmlns="http://www.w3.org/2000/svg" xml:space="preserve" width="9.8mm" height="10mm" version="1.1" style="shape-rendering:geometricPrecision; text-rendering:geometricPrecision; image-rendering:optimizeQuality; fill-rule:evenodd; clip-rule:evenodd"
viewBox="0 0 1424.97 1454.05"
 xmlns:xlink="http://www.w3.org/1999/xlink"
 xmlns:xodm="http://www.corel.com/coreldraw/odm/2003">
 <defs>
  <style type="text/css">
   <![CDATA[
    .fil0 {fill:whitesmoke}
   ]]>
  </style>
 </defs>
 <g id="Capa_x0020_1">
  <metadata id="CorelCorpID_0Corel-Layer"/>
  <path class="fil0" d="M1409.61 594.55c10.5,45.24 15.35,88.86 15.35,148.63 0,221.34 -79.17,407.95 -216.49,534.77 -120.37,111.47 -285.15,176.1 -481.45,176.1 -284.35,0 -529.93,-163.17 -649.48,-400.68 -49.28,-98.56 -77.54,-209.21 -77.54,-326.35 0,-117.14 28.27,-227.81 77.54,-326.36 119.55,-237.49 365.13,-400.66 649.48,-400.66 196.3,0 360.28,71.89 486.29,189.03l-205.18 200.34c-52.51,-49.28 -144.59,-108.25 -281.11,-108.25 -192.25,0 -355.43,126.84 -414.4,302.12 -14.54,45.24 -23.42,93.7 -23.42,143.79 0,50.08 8.88,98.56 24.22,143.79 58.18,175.29 221.35,302.11 413.6,302.11 108.24,0 190.64,-29.88 252.03,-72.7 96.94,-67.85 140.56,-168.82 148.63,-235.88l-400.66 0 0 -269.8 682.59 0z"/>
 </g>
</svg>
