<svg width="28" height="28" viewBox="0 0 28 28" fill="none" xmlns="http://www.w3.org/2000/svg">
<path fill-rule="evenodd" clip-rule="evenodd" d="M14 2.27271C7.52318 2.27271 2.27271 7.52318 2.27271 14C2.27271 20.4768 7.52318 25.7272 14 25.7272C20.4768 25.7272 25.7272 20.4768 25.7272 14C25.7272 7.52318 20.4768 2.27271 14 2.27271ZM0.272705 14C0.272705 6.41861 6.41861 0.272705 14 0.272705C21.5813 0.272705 27.7272 6.41861 27.7272 14C27.7272 21.5813 21.5813 27.7272 14 27.7272C6.41861 27.7272 0.272705 21.5813 0.272705 14ZM14.3746 8.67125C13.7187 8.55873 13.0441 8.682 12.4703 9.01922C11.8965 9.35644 11.4606 9.88584 11.2397 10.5137C11.0564 11.0347 10.4855 11.3084 9.96454 11.1252C9.44355 10.9419 9.16978 10.371 9.35305 9.84998C9.73064 8.7766 10.4759 7.87149 11.4569 7.29495C12.4379 6.71842 13.5913 6.50767 14.7128 6.70004C15.8342 6.8924 16.8515 7.47546 17.5842 8.34595C18.3169 9.21629 18.7179 10.3178 18.7164 11.4555C18.7159 13.2586 17.3768 14.4737 16.362 15.1502C15.8241 15.5088 15.2933 15.7735 14.9009 15.9479C14.7033 16.0357 14.5373 16.1022 14.4183 16.1476C14.3587 16.1703 14.3106 16.1877 14.2761 16.2L14.2345 16.2146L14.2217 16.219L14.2174 16.2204L14.2157 16.221L14.215 16.2212C14.2147 16.2213 14.2144 16.2214 13.8982 15.2727L14.2144 16.2214C13.6905 16.3961 13.1242 16.1129 12.9495 15.589C12.7751 15.0656 13.0574 14.4999 13.5803 14.3246L13.581 14.3244L13.581 14.3244L13.5812 14.3243L13.5838 14.3234L13.6061 14.3156C13.6274 14.308 13.6615 14.2957 13.7063 14.2786C13.7961 14.2444 13.9283 14.1916 14.0887 14.1203C14.4122 13.9765 14.836 13.7639 15.2526 13.4861C16.1467 12.89 16.7164 12.1964 16.7164 11.4546L16.7164 11.4531C16.7174 10.7875 16.4828 10.1431 16.0542 9.63396C15.6256 9.1248 15.0306 8.78376 14.3746 8.67125ZM18.7164 11.4555V11.4546H17.7164L18.7164 11.456L18.7164 11.4555ZM14 19.3636C13.4477 19.3636 13 19.8114 13 20.3636C13 20.9159 13.4477 21.3636 14 21.3636H14.0127C14.565 21.3636 15.0127 20.9159 15.0127 20.3636C15.0127 19.8114 14.565 19.3636 14.0127 19.3636H14Z" fill="#F5F5F5"/>
</svg>
