<?xml version="1.0" encoding="UTF-8"?>
<!DOCTYPE svg PUBLIC "-//W3C//DTD SVG 1.1//EN" "http://www.w3.org/Graphics/SVG/1.1/DTD/svg11.dtd">
<!-- Creator: CorelDRAW 2020 (64-Bit) -->
<svg xmlns="http://www.w3.org/2000/svg" xml:space="preserve" width="9.7896mm" height="9.7896mm" version="1.1" style="shape-rendering:geometricPrecision; text-rendering:geometricPrecision; image-rendering:optimizeQuality; fill-rule:evenodd; clip-rule:evenodd"
viewBox="0 0 978.96 978.96"
 xmlns:xlink="http://www.w3.org/1999/xlink"
 xmlns:xodm="http://www.corel.com/coreldraw/odm/2003">
 <defs>
  <style type="text/css">
   <![CDATA[
    .str0 {stroke:#00AAB4;stroke-width:52.92;stroke-linecap:round;stroke-linejoin:round;stroke-miterlimit:22.9256}
    .fil1 {fill:whitesmoke}
    .fil0 {fill:#00AAB4;fill-rule:nonzero}
   ]]>
  </style>
 </defs>
 <g id="Capa_x0020_1">
  <metadata id="CorelCorpID_0Corel-Layer"/>
  <path class="fil0 str0" d="M952.5 643.82c0,27.29 -10.84,53.46 -30.14,72.76 -19.29,19.29 -45.46,30.13 -72.75,30.13l-617.36 0 -205.79 205.79 0 -823.15c0,-27.29 10.84,-53.46 30.14,-72.75 19.29,-19.3 45.46,-30.14 72.75,-30.14l720.26 0c27.29,0 53.46,10.84 72.75,30.14 19.3,19.29 30.14,45.46 30.14,72.75l0 514.47z"/>
  <path class="fil1" d="M533.58 165.92c0,-24.44 -19.81,-44.25 -44.25,-44.25 -24.44,0 -44.25,19.81 -44.25,44.25l0 280.23c0,24.42 19.81,44.23 44.25,44.23 24.44,0 44.25,-19.81 44.25,-44.23l0 -280.23zm-44.25 368.71c-24.44,0 -44.25,19.81 -44.25,44.25 0,24.44 19.81,44.25 44.25,44.25l0.3 0c24.43,0 44.24,-19.81 44.24,-44.25 0,-24.44 -19.81,-44.25 -44.24,-44.25l-0.3 0z"/>
 </g>
</svg>
