<svg width="27" height="28" viewBox="0 0 27 28" fill="none" xmlns="http://www.w3.org/2000/svg">
<path fill-rule="evenodd" clip-rule="evenodd" d="M19.3933 2.25644C16.8418 0.853708 13.9016 0.313859 11.0154 0.717694C8.12914 1.12153 5.4522 2.44738 3.38821 4.49654C3.36058 4.52397 3.33457 4.55299 3.31032 4.58346L0.363952 8.2855C0.0200288 8.71762 0.0915344 9.34674 0.523664 9.69066C0.955793 10.0346 1.58491 9.96308 1.92883 9.53095L4.83803 5.87562C6.58885 4.15472 8.85209 3.03986 11.2925 2.6984C13.7519 2.35428 16.2569 2.81446 18.4298 4.00905C20.6026 5.20359 22.3251 7.06743 23.3389 9.3188C24.3526 11.5701 24.603 14.0876 24.0527 16.4924C23.5024 18.8972 22.181 21.06 20.2863 22.6544C18.3915 24.2489 16.0262 25.1884 13.5466 25.3303C11.067 25.4723 8.60871 24.8089 6.54212 23.4409C4.47563 22.0729 2.91315 20.0748 2.08899 17.7484C1.90456 17.2278 1.33304 16.9553 0.81246 17.1398C0.291878 17.3242 0.0193683 17.8957 0.203793 18.4163C1.17344 21.1534 3.01089 23.5018 5.43816 25.1086C7.86533 26.7153 10.7512 27.4936 13.6609 27.3271C16.5707 27.1605 19.3479 26.058 21.574 24.1847C23.8002 22.3113 25.3548 19.7684 26.0023 16.9385C26.6499 14.1086 26.355 11.1461 25.1625 8.49765C23.97 5.84931 21.9449 3.65923 19.3933 2.25644ZM13 7C13 6.44772 12.5523 6 12 6C11.4477 6 11 6.44772 11 7V15.6667C11 16.0348 11.2023 16.3732 11.5267 16.5475L16.9026 19.4364C17.389 19.6978 17.9954 19.5154 18.2568 19.0289C18.5182 18.5424 18.3358 17.9361 17.8493 17.6747L13 15.0688V7Z" fill="#F5F5F5"/>
</svg>
