<svg width="29" height="28" viewBox="0 0 29 28" fill="none" xmlns="http://www.w3.org/2000/svg">
<path d="M1.13043 6.74597L2.40861 10.7739L6.52713 9.26426" stroke="#F5F5F5" stroke-width="2" stroke-linecap="round" stroke-linejoin="round"/>
<path fill-rule="evenodd" clip-rule="evenodd" d="M21.3933 2.25644C18.8418 0.853708 15.9016 0.313859 13.0154 0.717694C10.1291 1.12153 7.4522 2.44738 5.38821 4.49654C5.36058 4.52397 5.33457 4.55299 5.31032 4.58346L2.36395 8.2855C2.02003 8.71762 2.09153 9.34674 2.52366 9.69066C2.95579 10.0346 3.58491 9.96308 3.92883 9.53095L6.83803 5.87562C8.58885 4.15472 10.8521 3.03986 13.2925 2.6984C15.7519 2.35428 18.2569 2.81446 20.4298 4.00905C22.6026 5.20359 24.3251 7.06743 25.3389 9.3188C26.3526 11.5701 26.603 14.0876 26.0527 16.4924C25.5024 18.8972 24.181 21.06 22.2863 22.6544C20.3915 24.2489 18.0262 25.1884 15.5466 25.3303C13.067 25.4723 10.6087 24.8089 8.54212 23.4409C6.47563 22.0729 4.91315 20.0748 4.08899 17.7484C3.90456 17.2278 3.33304 16.9553 2.81246 17.1398C2.29188 17.3242 2.01937 17.8957 2.20379 18.4163C3.17344 21.1534 5.01089 23.5018 7.43816 25.1086C9.86533 26.7153 12.7512 27.4936 15.6609 27.3271C18.5707 27.1605 21.3479 26.058 23.574 24.1847C25.8002 22.3113 27.3548 19.7684 28.0023 16.9385C28.6499 14.1086 28.355 11.1461 27.1625 8.49765C25.97 5.84931 23.9449 3.65923 21.3933 2.25644ZM15 7C15 6.44772 14.5523 6 14 6C13.4477 6 13 6.44772 13 7V15.6667C13 16.0348 13.2023 16.3732 13.5267 16.5475L18.9026 19.4364C19.389 19.6978 19.9954 19.5154 20.2568 19.0289C20.5182 18.5424 20.3358 17.9361 19.8493 17.6747L15 15.0688V7Z" fill="#F5F5F5"/>
</svg>
