<?xml version="1.0" encoding="UTF-8"?>
<!DOCTYPE svg PUBLIC "-//W3C//DTD SVG 1.1//EN" "http://www.w3.org/Graphics/SVG/1.1/DTD/svg11.dtd">
<!-- Creator: CorelDRAW 2020 (64-Bit) -->
<svg xmlns="http://www.w3.org/2000/svg" xml:space="preserve" width="10.0058mm" height="10.0001mm" version="1.1" style="shape-rendering:geometricPrecision; text-rendering:geometricPrecision; image-rendering:optimizeQuality; fill-rule:evenodd; clip-rule:evenodd"
viewBox="0 0 491.68 491.4"
 xmlns:xlink="http://www.w3.org/1999/xlink"
 xmlns:xodm="http://www.corel.com/coreldraw/odm/2003">
 <defs>
  <style type="text/css">
   <![CDATA[
    .fil0 {fill:whitesmoke}
   ]]>
  </style>
 </defs>
 <g id="Capa_x0020_1">
  <metadata id="CorelCorpID_0Corel-Layer"/>
  <path class="fil0" d="M372.58 85.81c-14.66,2.27 -27.56,16.07 -24.8,33.56 2.28,14.43 16.28,27.31 33.64,24.53 14.28,-2.28 27.21,-16.18 24.45,-33.48 -2.3,-14.43 -16.12,-27.26 -33.29,-24.6zm-328.23 147.23c0.01,-19.39 0.06,-38.69 0.35,-58.07 0.52,-34.74 0.89,-73.65 24.87,-99.13 1.29,-1.37 2.05,-2.36 3.41,-3.71 1.38,-1.37 2.32,-2.05 3.72,-3.4 28.41,-27.64 88.72,-24.21 127.89,-24.54 38.37,-0.32 77.63,-0.57 115.95,0.42 31.18,0.8 69.79,1.63 93.47,22.76 3.45,3.09 11.63,11.58 14,15.06 14.24,20.85 17.26,42.89 18.37,68.98 1.33,31.08 4.38,208.44 -4.59,225.17 -0.05,7.93 -8.48,24.37 -12.24,30.17 -3.19,4.93 -5.94,7.76 -9.67,11.68 -20.29,21.29 -46.58,26.25 -78.95,27.77 -45.14,2.13 -122.51,1.67 -168.66,0.65 -36.92,-0.82 -74.42,-1.56 -99.95,-28.12 -3.58,-3.72 -6.63,-6.78 -9.74,-11.59 -16.87,-26.02 -17.2,-56.61 -17.86,-88.93 -0.57,-28.3 -0.44,-56.8 -0.4,-85.14zm-43.81 66.78c1.75,21.03 -0.36,43.16 2.96,66.18 2.74,18.96 7.29,38.17 15.76,53.5 4.2,7.6 8.08,14.33 13.41,20.82 1.51,1.84 2.58,3.13 3.99,4.4 1.93,1.75 2.67,2.8 4.41,4.61 14.92,15.53 33.56,26.65 54.51,32.74 37.81,10.99 88.27,9.25 129.69,9.18 46.02,-0.07 91.02,0.16 136.55,-2.49 22.87,-1.48 47.15,-9.67 63.83,-19.39 14.64,-8.53 33.14,-25.8 41.95,-40.76 25.98,-44.13 23.78,-89.66 23.83,-142.16 0.04,-39.88 1.49,-127.48 -3.15,-162.88 -3.22,-24.53 -10.16,-43.64 -21.11,-61.58 -8.87,-14.54 -18.52,-22.45 -29.91,-32.13 -4.18,-3.55 -10.13,-6.57 -12.08,-8.33 -10.23,-3.58 -12.93,-7.75 -33.86,-13.61 -33.35,-9.33 -96.08,-7.43 -131.8,-7.73 -30.5,-0.26 -61.98,-0.42 -92.42,0.57 -29.74,0.97 -54.78,1.93 -81.12,11.99 -17.97,6.86 -24.47,11.86 -37.06,21.75 -3.71,2.91 -8.54,8.6 -11.68,11.58 -2.82,2.66 -3.02,3.49 -5.38,6.25 -33.92,39.79 -31.18,103.61 -31.43,154.62 -0.08,16.92 -1,81.07 0.1,92.85zm238.76 -135.94c20.09,-1.5 40.12,4.23 55.71,15.99 2.24,1.69 3.32,2.96 5.23,4.44 14.87,11.47 25.71,33.73 27.5,54.4 2.21,25.47 -5.71,43.26 -20.37,61.32 -19.54,24.06 -57.74,34.94 -90.4,22.52 -13.21,-5.02 -16.1,-8.21 -25.29,-15.41 -6.49,-5.07 -13.28,-13.87 -18.33,-23.07 -11.05,-20.11 -12.25,-45.89 -4.26,-67.35 2.85,-7.65 9.7,-19.67 15.32,-25.39 6.85,-6.97 12.52,-12.39 23.2,-18.21 8.67,-4.71 20.41,-8.41 31.67,-9.25zm-116.14 53.73c-4.28,13.85 -3.82,36.67 -1.1,51.25 2.89,15.5 8.59,29.92 15.83,41.65 14.74,23.91 35.28,42.34 62.33,52.7 60.44,23.13 125.25,-2.41 155.98,-56.28 3.7,-8.69 7.31,-14.52 10.31,-24.6 15.57,-52.29 -2.24,-101.89 -42.34,-135.45 -39.34,-32.92 -102.29,-34.79 -143.38,-8.95 -1.96,1.23 -3.37,2.18 -5.46,3.58 -12.71,8.48 -16.49,13.23 -26.82,24.24 -9.9,10.55 -21.25,33.78 -25.35,51.88z"/>
 </g>
</svg>
