<svg width="29" height="29" viewBox="0 0 29 29" fill="none" xmlns="http://www.w3.org/2000/svg">
<path fill-rule="evenodd" clip-rule="evenodd" d="M14.0833 2.08331C7.4559 2.08331 2.08331 7.4559 2.08331 14.0833C2.08331 20.7107 7.4559 26.0833 14.0833 26.0833C20.7107 26.0833 26.0833 20.7107 26.0833 14.0833C26.0833 7.4559 20.7107 2.08331 14.0833 2.08331ZM0.083313 14.0833C0.083313 6.35133 6.35133 0.083313 14.0833 0.083313C21.8153 0.083313 28.0833 6.35133 28.0833 14.0833C28.0833 21.8153 21.8153 28.0833 14.0833 28.0833C6.35133 28.0833 0.083313 21.8153 0.083313 14.0833ZM18.6905 9.47624C19.081 9.86677 19.081 10.4999 18.6905 10.8905L15.4976 14.0833L18.6905 17.2762C19.081 17.6668 19.081 18.2999 18.6905 18.6905C18.2999 19.081 17.6668 19.081 17.2762 18.6905L14.0833 15.4976L10.8905 18.6905C10.4999 19.081 9.86677 19.081 9.47624 18.6905C9.08572 18.2999 9.08572 17.6668 9.47624 17.2762L12.6691 14.0833L9.47624 10.8905C9.08572 10.4999 9.08572 9.86677 9.47624 9.47624C9.86677 9.08572 10.4999 9.08572 10.8905 9.47624L14.0833 12.6691L17.2762 9.47624C17.6668 9.08572 18.2999 9.08572 18.6905 9.47624Z" fill="#F5F5F5"/>
</svg>
