<svg width="26" height="28" viewBox="0 0 20 22" fill="#00D2DC" xmlns="http://www.w3.org/2000/svg">
<path fill-rule="evenodd" clip-rule="evenodd" d="M10 0C8.1435 0 6.36302 0.737498 5.05027 2.05025C3.73751 3.36301 3.00002 5.14348 3.00002 7C3.00002 10.3527 2.28295 12.4346 1.62212 13.6461C1.29033 14.2544 0.967243 14.6535 0.742814 14.8904C0.630339 15.0091 0.541955 15.0878 0.488739 15.1322C0.462117 15.1544 0.444263 15.168 0.436564 15.1737L0.433706 15.1758C0.0752214 15.4221 -0.0834178 15.8725 0.0429247 16.2898C0.170623 16.7115 0.55935 17 1.00002 17H19C19.4407 17 19.8294 16.7115 19.9571 16.2898C20.0835 15.8725 19.9248 15.4221 19.5663 15.1758L19.5635 15.1737C19.5558 15.168 19.5379 15.1544 19.5113 15.1322C19.4581 15.0878 19.3697 15.0091 19.2572 14.8904C19.0328 14.6535 18.7097 14.2544 18.3779 13.6461C17.7171 12.4346 17 10.3527 17 7C17 5.14349 16.2625 3.36301 14.9498 2.05025C13.637 0.737498 11.8565 0 10 0ZM16.6221 14.6039C16.6982 14.7434 16.7746 14.8753 16.8507 15H3.14934C3.22543 14.8753 3.30181 14.7434 3.37791 14.6039C4.21708 13.0654 5.00002 10.6473 5.00002 7C5.00002 5.67392 5.5268 4.40215 6.46448 3.46447C7.40216 2.52678 8.67393 2 10 2C11.3261 2 12.5979 2.52678 13.5356 3.46447C14.4732 4.40215 15 5.67392 15 7C15 10.6473 15.7829 13.0654 16.6221 14.6039ZM8.86502 19.4982C8.5879 19.0205 7.97597 18.8579 7.49825 19.135C7.02052 19.4121 6.8579 20.024 7.13502 20.5018C7.39873 20.9564 7.77725 21.3337 8.23268 21.5961C8.6881 21.8584 9.20445 21.9965 9.73002 21.9965C10.2556 21.9965 10.7719 21.8584 11.2274 21.5961C11.6828 21.3337 12.0613 20.9564 12.325 20.5018C12.6021 20.024 12.4395 19.4121 11.9618 19.135C11.4841 18.8579 10.8721 19.0205 10.595 19.4982C10.5071 19.6498 10.3809 19.7756 10.2291 19.863C10.0773 19.9504 9.90521 19.9965 9.73002 19.9965C9.55483 19.9965 9.38271 19.9504 9.2309 19.863C9.0791 19.7756 8.95292 19.6498 8.86502 19.4982Z" fill="#00D2DC"/>
</svg>
