<svg width="28" height="28" viewBox="0 0 28 28" fill="none" xmlns="http://www.w3.org/2000/svg">
<path fill-rule="evenodd" clip-rule="evenodd" d="M15 2.04107V5H19.9167C20.469 5 20.9167 5.44772 20.9167 6C20.9167 6.55228 20.469 7 19.9167 7H15V12.5H17.2083C18.4756 12.5 19.6932 12.9978 20.5926 13.8873C21.4925 14.7773 22 15.9866 22 17.25C22 18.5134 21.4925 19.7227 20.5926 20.6127C19.6932 21.5022 18.4756 22 17.2083 22H15V25.9589C21.1595 25.4508 26 20.2907 26 14C26 7.70934 21.1595 2.54922 15 2.04107ZM13 25.9589V22H8C7.44772 22 7 21.5523 7 21C7 20.4477 7.44772 20 8 20H13V14.5H11.7917C10.5244 14.5 9.3068 14.0022 8.40736 13.1127C7.50755 12.2227 7 11.0134 7 9.75C7 8.48663 7.50755 7.27727 8.40736 6.38735C9.3068 5.49779 10.5244 5 11.7917 5H13V2.04107C6.84047 2.54922 2 7.70934 2 14C2 20.2907 6.84047 25.4508 13 25.9589ZM14 0C6.26801 0 0 6.26801 0 14C0 21.732 6.26801 28 14 28C21.732 28 28 21.732 28 14C28 6.26801 21.732 0 14 0ZM11.7917 7H13V12.5H11.7917C11.0477 12.5 10.3365 12.2076 9.81374 11.6906C9.29141 11.1741 9 10.4758 9 9.75C9 9.02424 9.29141 8.32595 9.81374 7.80935C10.3365 7.29239 11.0477 7 11.7917 7ZM15 20V14.5H17.2083C17.9523 14.5 18.6635 14.7924 19.1863 15.3094C19.7086 15.8259 20 16.5242 20 17.25C20 17.9758 19.7086 18.6741 19.1863 19.1906C18.6635 19.7076 17.9523 20 17.2083 20H15Z" fill="#F5F5F5"/>
</svg>
