<svg width="12" height="18" viewBox="0 0 12 18" fill="none" xmlns="http://www.w3.org/2000/svg">
<path d="M6.0004 1C5.43208 1 4.88704 1.22576 4.48517 1.62763C4.08331 2.02949 3.85754 2.57454 3.85754 3.14286V8.85714C3.85754 9.42546 4.08331 9.97051 4.48517 10.3724C4.88704 10.7742 5.43208 11 6.0004 11C6.56872 11 7.11377 10.7742 7.51563 10.3724C7.91749 9.97051 8.14326 9.42546 8.14326 8.85714V3.14286C8.14326 2.57454 7.91749 2.02949 7.51563 1.62763C7.11377 1.22576 6.56872 1 6.0004 1V1Z" stroke="#F7F7F7" stroke-width="2" stroke-linecap="round" stroke-linejoin="round"/>
<path d="M11 7.42847V8.85704C11 10.1831 10.4732 11.4549 9.53553 12.3926C8.59785 13.3303 7.32608 13.857 6 13.857C4.67392 13.857 3.40215 13.3303 2.46447 12.3926C1.52678 11.4549 1 10.1831 1 8.85704V7.42847" stroke="#F7F7F7" stroke-width="2" stroke-linecap="round" stroke-linejoin="round"/>
<path d="M6 13.8572V16.7143" stroke="#F7F7F7" stroke-width="2" stroke-linecap="round" stroke-linejoin="round"/>
<path d="M3.14246 16.7144H8.85674" stroke="#F7F7F7" stroke-width="2" stroke-linecap="round" stroke-linejoin="round"/>
</svg>
