<svg width="28" height="28" viewBox="0 0 28 28" fill="none" xmlns="http://www.w3.org/2000/svg">
<path fill-rule="evenodd" clip-rule="evenodd" d="M14 2C7.37258 2 2 7.37258 2 14C2 20.6274 7.37258 26 14 26C20.6274 26 26 20.6274 26 14C26 7.37258 20.6274 2 14 2ZM0 14C0 6.26801 6.26801 0 14 0C21.732 0 28 6.26801 28 14C28 21.732 21.732 28 14 28C6.26801 28 0 21.732 0 14ZM6.46447 15.4645C7.40215 14.5268 8.67392 14 10 14H18C19.3261 14 20.5979 14.5268 21.5355 15.4645C22.4732 16.4021 23 17.6739 23 19V21C23 21.5523 22.5523 22 22 22C21.4477 22 21 21.5523 21 21V19C21 18.2044 20.6839 17.4413 20.1213 16.8787C19.5587 16.3161 18.7956 16 18 16H10C9.20435 16 8.44129 16.3161 7.87868 16.8787C7.31607 17.4413 7 18.2043 7 19V21C7 21.5523 6.55228 22 6 22C5.44772 22 5 21.5523 5 21V19C5 17.6739 5.52678 16.4021 6.46447 15.4645ZM11 8C11 6.34315 12.3431 5 14 5C15.6569 5 17 6.34315 17 8C17 9.65685 15.6569 11 14 11C12.3431 11 11 9.65685 11 8ZM14 3C11.2386 3 9 5.23858 9 8C9 10.7614 11.2386 13 14 13C16.7614 13 19 10.7614 19 8C19 5.23858 16.7614 3 14 3Z" fill="#F5F5F5"/>
</svg>
