<?xml version="1.0" encoding="UTF-8"?>
<!DOCTYPE svg PUBLIC "-//W3C//DTD SVG 1.1//EN" "http://www.w3.org/Graphics/SVG/1.1/DTD/svg11.dtd">
<!-- Creator: CorelDRAW 2020 (64-Bit) -->
<svg xmlns="http://www.w3.org/2000/svg" xml:space="preserve" width="5.2918mm" height="6.0464mm" version="1.1" style="shape-rendering:geometricPrecision; text-rendering:geometricPrecision; image-rendering:optimizeQuality; fill-rule:evenodd; clip-rule:evenodd"
viewBox="0 0 529.18 604.64"
 xmlns:xlink="http://www.w3.org/1999/xlink"
 xmlns:xodm="http://www.corel.com/coreldraw/odm/2003">
 <defs>
  <style type="text/css">
   <![CDATA[
    .fil0 {fill:whitesmoke;fill-rule:nonzero}
   ]]>
  </style>
 </defs>
 <g id="Capa_x0020_1">
  <metadata id="CorelCorpID_0Corel-Layer"/>
  <path class="fil0" d="M52.92 291.05c0,14.61 -11.85,26.46 -26.46,26.46 -14.61,0 -26.46,-11.85 -26.46,-26.46l0 -52.92c0,-17.44 3.51,-34.65 10.13,-50.62l0.64 -1.42c6.58,-15.36 16.04,-29.44 27.98,-41.4l0.11 -0.11c12.33,-12.31 26.92,-21.99 42.83,-28.58 15.96,-6.66 33.17,-10.17 50.61,-10.17l306.54 0 -60.67 -60.66c-10.33,-10.33 -10.33,-27.09 0,-37.42 10.33,-10.33 27.09,-10.33 37.42,0l105.84 105.83 0.44 0.46 0.04 0.03 0.39 0.43 0.07 0.07 0.36 0.41 0.08 0.09 0.33 0.39 0.11 0.13 0.29 0.37 0.12 0.15 0.26 0.35 0.14 0.18 0.24 0.33 0.15 0.21 0.21 0.32 0.16 0.23 0.19 0.3 0.66 1.09 0.17 0.29 0.15 0.27 0.16 0.3 0.13 0.27 0.29 0.57 0.16 0.33 0.11 0.25 0.15 0.34 0.11 0.25 0.14 0.34 0.1 0.26 0.14 0.34 0.09 0.26 0.12 0.35 0.1 0.26 0.11 0.34 0.09 0.28 0.1 0.34 0.09 0.29 0.08 0.32 0.09 0.31 0.07 0.31 0.08 0.33 0.06 0.29 0.08 0.35 0.05 0.28 0.08 0.37 0.04 0.25 0.07 0.4 0.03 0.23 0.06 0.43 0.02 0.2 0.05 0.47 0.02 0.16 0.04 0.5 0.01 0.14 0.04 0.54 0 0.09 0.02 0.59 0 0.05 0.01 0.63 -0.01 0.63 0 0.05 -0.02 0.59 0 0.09 -0.04 0.54 -0.01 0.14 -0.04 0.5 -0.02 0.16 -0.05 0.47 -0.02 0.2 -0.06 0.43 -0.03 0.23 -0.07 0.4 -0.04 0.25 -0.08 0.37 -0.05 0.28 -0.08 0.35 -0.06 0.29 -0.08 0.33 -0.07 0.31 -0.09 0.31 -0.08 0.32 -0.09 0.29 -0.1 0.34 -0.09 0.28 -0.11 0.34 -0.1 0.26 -0.12 0.35 -0.09 0.26 -0.14 0.34 -0.1 0.26 -0.14 0.34 -0.11 0.25 -0.15 0.34 -0.11 0.25 -0.16 0.33 -0.29 0.57 -0.13 0.27 -0.16 0.3 -0.15 0.27 -0.17 0.29 -0.66 1.09 -0.19 0.3 -0.16 0.23 -0.21 0.32 -0.15 0.21 -0.24 0.33 -0.14 0.18 -0.26 0.35 -0.12 0.15 -0.29 0.37 -0.11 0.13 -0.33 0.39 -0.08 0.09 -0.36 0.41 -0.07 0.07 -0.39 0.43 -0.04 0.03 -0.44 0.46 -105.84 105.83c-10.33,10.33 -27.09,10.33 -37.42,0 -10.33,-10.33 -10.33,-27.09 0,-37.42l60.67 -60.66 -306.54 0c-10.6,0 -20.92,2.08 -30.36,5.99 -9.57,3.92 -18.35,9.74 -25.82,17.21 -7.19,7.19 -12.85,15.59 -16.76,24.65l-0.45 1.17c-3.91,9.44 -5.99,19.76 -5.99,30.36l0 52.92zm423.34 21.49c0,-14.61 11.85,-26.46 26.46,-26.46 14.61,0 26.46,11.85 26.46,26.46l0 52.92c0,17.39 -3.51,34.55 -10.13,50.53 -6.65,16.06 -16.34,30.74 -28.62,43.02l-1.68 1.54c-11.99,11.58 -26.02,20.72 -41.26,27.04 -15.96,6.66 -33.17,10.17 -50.61,10.17l-307.59 0 61.72 61.71c10.33,10.33 10.33,27.09 0,37.42 -10.33,10.33 -27.09,10.33 -37.42,0l-105.84 -105.83c-5.26,-5.26 -7.84,-12.19 -7.74,-19.08l0 -0.26 -0.01 -0.42c0,-9.57 5.08,-17.95 12.69,-22.6l100.9 -100.89c10.33,-10.33 27.09,-10.33 37.42,0 10.33,10.33 10.33,27.09 0,37.42l-59.62 59.61 305.49 0c10.6,0 20.92,-2.08 30.36,-5.99 9.05,-3.71 17.39,-9.11 24.59,-16l1.18 -1.26c7.54,-7.54 13.38,-16.3 17.26,-25.66 3.91,-9.45 5.99,-19.79 5.99,-30.47l0 -52.92z"/>
 </g>
</svg>
