<svg width="19" height="19" viewBox="0 0 19 19" fill="none" xmlns="http://www.w3.org/2000/svg">
<path fill-rule="evenodd" clip-rule="evenodd" d="M3.71719 8.64054C3.71719 12.3078 6.69046 15.2811 10.3586 15.2811C14.0267 15.2811 17 12.3078 17 8.64054C17 4.97326 14.0267 2 10.3586 2C6.69046 2 3.71719 4.97326 3.71719 8.64054ZM4.90188 15.3408C6.38973 16.5538 8.28922 17.2811 10.3586 17.2811C15.1311 17.2811 19 13.4126 19 8.64054C19 3.8685 15.1311 0 10.3586 0C5.58608 0 1.71719 3.8685 1.71719 8.64054C1.71719 10.6228 2.38473 12.4491 3.50729 13.907L0.585701 16.8283C0.195156 17.2188 0.195156 17.8519 0.585699 18.2424C0.976244 18.6329 1.60944 18.6329 1.99998 18.2424L4.90188 15.3408Z" fill="#F5F5F5"/>
</svg>
