<svg width="19" height="19" viewBox="0 0 19 19" fill="none" xmlns="http://www.w3.org/2000/svg">
<path fill-rule="evenodd" clip-rule="evenodd" d="M13.2828 8.64054C13.2828 11.2031 11.2052 13.2811 8.64141 13.2811C6.07765 13.2811 4 11.2031 4 8.64054C4 6.07802 6.07765 4 8.64141 4C11.2052 4 13.2828 6.07802 13.2828 8.64054ZM13.1716 16C11.8544 16.8124 10.3026 17.2811 8.64141 17.2811C3.86889 17.2811 0 13.4126 0 8.64054C0 3.8685 3.86889 0 8.64141 0C13.4139 0 17.2828 3.8685 17.2828 8.64054C17.2828 10.3023 16.8136 11.8546 16.0005 13.172L18.2429 15.4141C19.0239 16.1952 19.0239 17.4614 18.2429 18.2424C17.4618 19.0234 16.1954 19.0234 15.4143 18.2424L13.1716 16Z" fill="#F5F5F5"/>
</svg>
