<svg width="20" height="22" viewBox="0 0 20 22" fill="none" xmlns="http://www.w3.org/2000/svg">
<path fill-rule="evenodd" clip-rule="evenodd" d="M16 2C14.8954 2 14 2.89543 14 4C14 4.34723 14.0885 4.6738 14.2441 4.95837C14.2544 4.97387 14.2642 4.98974 14.2737 5.00598C14.2831 5.0221 14.292 5.03837 14.3004 5.05477C14.6533 5.62224 15.2826 6 16 6C17.1046 6 18 5.10457 18 4C18 2.89543 17.1046 2 16 2ZM13.1581 6.81487C13.883 7.54669 14.8885 8 16 8C18.2091 8 20 6.20914 20 4C20 1.79086 18.2091 0 16 0C13.7909 0 12 1.79086 12 4C12 4.37703 12.0522 4.74187 12.1497 5.0877L6.84195 8.18516C6.11705 7.45332 5.11147 7 4 7C1.79086 7 0 8.79086 0 11C0 13.2091 1.79086 15 4 15C5.11167 15 6.11742 14.5465 6.84235 13.8144L12.1509 16.9079C12.0526 17.255 12 17.6214 12 18C12 20.2091 13.7909 22 16 22C18.2091 22 20 20.2091 20 18C20 15.7909 18.2091 14 16 14C14.8902 14 13.886 14.452 13.1613 15.1819L7.8505 12.0871C7.9479 11.7415 8 11.3768 8 11C8 10.623 7.94784 10.2582 7.85035 9.91234L13.1581 6.81487ZM5.69982 9.94563C5.70817 9.96191 5.71701 9.97805 5.72634 9.99404C5.73574 10.0101 5.74552 10.0259 5.75566 10.0413C5.91144 10.3259 6 10.6526 6 11C6 11.3474 5.91142 11.6742 5.7556 11.9588C5.74536 11.9744 5.7355 11.9903 5.72602 12.0065C5.71683 12.0223 5.70812 12.0382 5.69988 12.0543C5.34702 12.622 4.71765 13 4 13C2.89543 13 2 12.1046 2 11C2 9.89543 2.89543 9 4 9C4.71761 9 5.34695 9.37794 5.69982 9.94563ZM14 18C14 17.6749 14.0776 17.3679 14.2152 17.0966C14.2399 17.0641 14.2629 17.0297 14.284 16.9935C14.3043 16.9588 14.3222 16.9234 14.3378 16.8874C14.6967 16.3522 15.3072 16 16 16C17.1046 16 18 16.8954 18 18C18 19.1046 17.1046 20 16 20C14.8954 20 14 19.1046 14 18Z" fill="#F5F5F5"/>
</svg>
