<svg width="13" height="13" viewBox="0 0 13 13" fill="none" xmlns="http://www.w3.org/2000/svg">
<path d="M6.5 0C2.90927 0 0 2.90927 0 6.5C0 10.0907 2.90927 13 6.5 13C10.0907 13 13 10.0907 13 6.5C13 2.90927 10.0907 0 6.5 0ZM2.30645 6.5H1.46774C1.46774 3.7244 3.7244 1.46774 6.5 1.46774V2.30645C4.18831 2.30645 2.30645 4.18831 2.30645 6.5ZM6.5 9.01613C5.11089 9.01613 3.98387 7.88911 3.98387 6.5C3.98387 5.11089 5.11089 3.98387 6.5 3.98387C7.88911 3.98387 9.01613 5.11089 9.01613 6.5C9.01613 7.88911 7.88911 9.01613 6.5 9.01613ZM6.5 5.66129C6.03609 5.66129 5.66129 6.03609 5.66129 6.5C5.66129 6.96391 6.03609 7.33871 6.5 7.33871C6.96391 7.33871 7.33871 6.96391 7.33871 6.5C7.33871 6.03609 6.96391 5.66129 6.5 5.66129Z" fill="#F5F5F5"/>
</svg>
