<svg width="14" height="14" viewBox="0 0 14 14" fill="none" xmlns="http://www.w3.org/2000/svg">
<path d="M4.99994 11V2.33333L12.9999 1V9.66667" stroke="#F5F5F5" stroke-width="2" stroke-linecap="round" stroke-linejoin="round"/>
<path d="M3 13C4.10457 13 5 12.1046 5 11C5 9.89543 4.10457 9 3 9C1.89543 9 1 9.89543 1 11C1 12.1046 1.89543 13 3 13Z" stroke="#F5F5F5" stroke-width="2" stroke-linecap="round" stroke-linejoin="round"/>
<path d="M11.0001 11.6667C12.1046 11.6667 13.0001 10.7713 13.0001 9.66675C13.0001 8.56218 12.1046 7.66675 11.0001 7.66675C9.89549 7.66675 9.00006 8.56218 9.00006 9.66675C9.00006 10.7713 9.89549 11.6667 11.0001 11.6667Z" stroke="#F5F5F5" stroke-width="2" stroke-linecap="round" stroke-linejoin="round"/>
</svg>
