<?xml version="1.0" encoding="UTF-8"?>
<!DOCTYPE svg PUBLIC "-//W3C//DTD SVG 1.1//EN" "http://www.w3.org/Graphics/SVG/1.1/DTD/svg11.dtd">
<!-- Creator: CorelDRAW 2020 (64-Bit) -->
<svg xmlns="http://www.w3.org/2000/svg" xml:space="preserve" width="6.8792mm" height="4.7626mm" version="1.1" style="shape-rendering:geometricPrecision; text-rendering:geometricPrecision; image-rendering:optimizeQuality; fill-rule:evenodd; clip-rule:evenodd"
viewBox="0 0 687.92 476.26"
 xmlns:xlink="http://www.w3.org/1999/xlink"
 xmlns:xodm="http://www.corel.com/coreldraw/odm/2003">
 <defs>
  <style type="text/css">
   <![CDATA[
    .fil0 {fill:whitesmoke;fill-rule:nonzero}
   ]]>
  </style>
 </defs>
 <g id="Capa_x0020_1">
  <metadata id="CorelCorpID_0Corel-Layer"/>
  <path class="fil0" d="M469.04 0l-250.16 0c-120.88,0 -218.88,106.62 -218.88,238.13 0,131.51 98,238.13 218.88,238.13l250.16 0c120.88,0 218.88,-106.62 218.88,-238.13 0,-131.51 -98,-238.13 -218.88,-238.13zm-163.86 331.64c-24.02,23.95 -57.09,38.78 -93.51,38.78 -36.53,0 -69.62,-14.82 -93.55,-38.75 -23.93,-23.93 -38.75,-57.02 -38.75,-93.54 0,-36.52 14.82,-69.61 38.75,-93.54 23.93,-23.93 57.02,-38.75 93.55,-38.75 35.6,0 67.99,14.17 91.84,37.19l1.7 1.56c23.93,23.93 38.75,57.01 38.75,93.54 0,36.53 -14.82,69.61 -38.78,93.51z"/>
 </g>
</svg>
