<?xml version="1.0" encoding="UTF-8"?>
<!DOCTYPE svg PUBLIC "-//W3C//DTD SVG 1.1//EN" "http://www.w3.org/Graphics/SVG/1.1/DTD/svg11.dtd">
<!-- Creator: CorelDRAW 2020 (64-Bit) -->
<svg xmlns="http://www.w3.org/2000/svg" xml:space="preserve" width="29.8114mm" height="29.8114mm" version="1.1" style="shape-rendering:geometricPrecision; text-rendering:geometricPrecision; image-rendering:optimizeQuality; fill-rule:evenodd; clip-rule:evenodd"
viewBox="0 0 593.65 593.65"
 xmlns:xlink="http://www.w3.org/1999/xlink"
 xmlns:xodm="http://www.corel.com/coreldraw/odm/2003">
 <defs>
  <style type="text/css">
   <![CDATA[
    .fil0 {fill:#C20000;fill-rule:nonzero}
   ]]>
  </style>
 </defs>
 <g id="Capa_x0020_1">
  <metadata id="CorelCorpID_0Corel-Layer"/>
  <path class="fil0" d="M593.65 296.82c0,163.93 -132.89,296.82 -296.82,296.82 -163.93,0 -296.82,-132.89 -296.82,-296.82 0,-163.93 132.89,-296.82 296.82,-296.82 163.93,0 296.82,132.89 296.82,296.82zm-351.14 156.56c131.62,0 203.59,-109.04 203.59,-203.59 0,-3.1 -0.06,-6.18 -0.2,-9.25 13.97,-10.1 26.12,-22.7 35.7,-37.05 -12.82,5.7 -26.62,9.53 -41.09,11.27 14.77,-8.86 26.12,-22.87 31.46,-39.58 -13.83,8.2 -29.14,14.16 -45.43,17.37 -13.06,-13.91 -31.65,-22.61 -52.23,-22.61 -39.52,0 -71.57,32.04 -71.57,71.55 0,5.61 0.63,11.07 1.86,16.32 -59.47,-2.99 -112.2,-31.47 -147.49,-74.76 -6.15,10.57 -9.69,22.86 -9.69,35.96 0,24.83 12.63,46.74 31.84,59.56 -11.73,-0.36 -22.76,-3.59 -32.4,-8.95 -0.02,0.3 -0.02,0.6 -0.02,0.91 0,34.66 24.67,63.59 57.41,70.15 -6.01,1.63 -12.33,2.52 -18.86,2.52 -4.61,0 -9.09,-0.46 -13.45,-1.29 9.11,28.42 35.52,49.11 66.85,49.7 -24.49,19.19 -55.35,30.63 -88.87,30.63 -5.77,0 -11.47,-0.33 -17.07,-1 31.67,20.3 69.27,32.14 109.68,32.14z"/>
 </g>
</svg>
