<?xml version="1.0" encoding="UTF-8"?>
<!DOCTYPE svg PUBLIC "-//W3C//DTD SVG 1.1//EN" "http://www.w3.org/Graphics/SVG/1.1/DTD/svg11.dtd">
<!-- Creator: CorelDRAW 2020 (64-Bit) -->
<svg xmlns="http://www.w3.org/2000/svg" xml:space="preserve" width="30mm" height="30mm" version="1.1" style="shape-rendering:geometricPrecision; text-rendering:geometricPrecision; image-rendering:optimizeQuality; fill-rule:evenodd; clip-rule:evenodd"
viewBox="0 0 995.62 995.62"
 xmlns:xlink="http://www.w3.org/1999/xlink"
 xmlns:xodm="http://www.corel.com/coreldraw/odm/2003">
 <defs>
  <style type="text/css">
   <![CDATA[
    .fil0 {fill:#C20000}
   ]]>
  </style>
 </defs>
 <g id="Capa_x0020_1">
  <metadata id="CorelCorpID_0Corel-Layer"/>
  <path class="fil0" d="M754.46 173.86c-29.69,4.6 -55.81,32.57 -50.23,68 4.61,29.24 32.96,55.32 68.12,49.69 28.93,-4.63 55.1,-32.79 49.51,-67.85 -4.66,-29.23 -32.65,-55.24 -67.4,-49.85zm-664.67 298.3c0.03,-39.28 0.14,-78.38 0.72,-117.66 1.05,-70.38 1.81,-149.23 50.36,-200.86 2.62,-2.78 4.15,-4.78 6.91,-7.53 2.78,-2.77 4.71,-4.15 7.53,-6.89 57.53,-56 179.66,-49.05 258.99,-49.72 77.7,-0.66 157.19,-1.14 234.79,0.85 63.15,1.62 141.32,3.31 189.28,46.11 7,6.25 23.54,23.46 28.36,30.52 28.84,42.24 34.95,86.9 37.21,139.75 2.69,62.97 8.88,422.33 -9.29,456.21 -0.11,16.07 -17.17,49.37 -24.78,61.13 -6.47,9.99 -12.02,15.73 -19.57,23.65 -41.1,43.13 -94.33,53.18 -159.87,56.28 -91.41,4.32 -248.09,3.39 -341.52,1.32 -74.75,-1.66 -150.69,-3.17 -202.4,-56.98 -7.24,-7.54 -13.42,-13.75 -19.73,-23.48 -34.15,-52.71 -34.83,-114.7 -36.17,-180.17 -1.17,-57.35 -0.88,-115.08 -0.81,-172.5zm-88.7 135.3c3.54,42.6 -0.74,87.45 5.99,134.09 5.54,38.42 14.76,77.33 31.92,108.41 8.49,15.39 16.36,29.04 27.16,42.17 3.06,3.72 5.24,6.34 8.07,8.92 3.91,3.56 5.41,5.67 8.94,9.35 30.22,31.46 67.95,54.01 110.38,66.34 76.56,22.27 178.74,18.73 262.63,18.6 93.18,-0.15 184.31,0.33 276.51,-5.04 46.31,-3 95.47,-19.59 129.25,-39.28 29.65,-17.28 67.11,-52.27 84.95,-82.59 52.61,-89.41 48.16,-181.66 48.25,-288.04 0.07,-80.79 3.02,-258.28 -6.39,-330.01 -6.51,-49.7 -20.56,-88.41 -42.74,-124.76 -17.97,-29.46 -37.49,-45.49 -60.56,-65.1 -8.46,-7.2 -20.5,-13.31 -24.47,-16.88 -20.71,-7.25 -26.18,-15.71 -68.57,-27.57 -67.52,-18.9 -194.55,-15.05 -266.89,-15.66 -61.76,-0.52 -125.51,-0.85 -187.15,1.16 -60.22,1.97 -110.92,3.9 -164.26,24.29 -36.38,13.91 -49.54,24.03 -75.03,44.07 -7.51,5.9 -17.29,17.44 -23.66,23.46 -5.7,5.39 -6.12,7.07 -10.89,12.66 -68.69,80.62 -63.14,209.93 -63.65,313.29 -0.17,34.28 -2.02,164.26 0.2,188.13zm483.48 -275.43c40.67,-3.04 81.24,8.57 112.82,32.4 4.53,3.42 6.71,6 10.6,9 30.1,23.25 52.05,68.35 55.69,110.22 4.48,51.61 -11.55,87.65 -41.24,124.24 -39.56,48.76 -116.93,70.79 -183.06,45.63 -26.76,-10.18 -32.59,-16.64 -51.21,-31.21 -13.13,-10.27 -26.9,-28.11 -37.12,-46.74 -22.36,-40.75 -24.81,-92.97 -8.62,-136.46 5.77,-15.5 19.66,-39.86 31.03,-51.44 13.87,-14.12 25.35,-25.11 46.98,-36.88 17.56,-9.55 41.34,-17.05 64.14,-18.75zm-235.19 108.87c-8.67,28.07 -7.74,74.3 -2.23,103.84 5.86,31.41 17.41,60.61 32.05,84.38 29.86,48.44 71.44,85.79 126.22,106.77 122.39,46.87 253.63,-4.88 315.86,-114.04 7.48,-17.6 14.8,-29.42 20.88,-49.86 31.53,-105.95 -4.53,-206.45 -85.74,-274.44 -79.66,-66.69 -207.14,-70.49 -290.34,-18.13 -3.97,2.5 -6.82,4.41 -11.07,7.25 -25.73,17.18 -33.38,26.8 -54.31,49.11 -20.05,21.37 -43.03,68.44 -51.32,105.12z"/>
 </g>
</svg>
