<?xml version="1.0" encoding="UTF-8"?>
<!DOCTYPE svg PUBLIC "-//W3C//DTD SVG 1.1//EN" "http://www.w3.org/Graphics/SVG/1.1/DTD/svg11.dtd">
<!-- Creator: CorelDRAW 2020 (64-Bit) -->
<svg xmlns="http://www.w3.org/2000/svg" xml:space="preserve" width="30mm" height="29.8178mm" version="1.1" style="shape-rendering:geometricPrecision; text-rendering:geometricPrecision; image-rendering:optimizeQuality; fill-rule:evenodd; clip-rule:evenodd"
viewBox="0 0 8774.5 8721.21"
 xmlns:xlink="http://www.w3.org/1999/xlink"
 xmlns:xodm="http://www.corel.com/coreldraw/odm/2003">
 <defs>
  <style type="text/css">
   <![CDATA[
    .fil0 {fill:#C20000}
   ]]>
  </style>
 </defs>
 <g id="Capa_x0020_1">
  <metadata id="CorelCorpID_0Corel-Layer"/>
  <path class="fil0" d="M8774.5 4387.28c0,-2423.02 -1964.23,-4387.28 -4387.25,-4387.28 -2423.02,0 -4387.25,1964.26 -4387.25,4387.28 0,2189.79 1604.36,4004.8 3701.73,4333.93l0 -3065.75 -1113.95 0 0 -1268.18 1113.95 0 0 -966.57c0,-1099.56 654.99,-1706.93 1657.15,-1706.93 479.99,0 982.07,85.7 982.07,85.7l0 1079.67 -553.23 0c-544.98,0 -714.98,338.2 -714.98,685.14l0 822.99 1216.79 0 -194.5 1268.18 -1022.29 0 0 3065.75c2097.4,-329.13 3701.75,-2144.14 3701.75,-4333.93z"/>
 </g>
</svg>
